<?xml version="1.0" standalone="no"?>
<!DOCTYPE svg PUBLIC "-//W3C//DTD SVG 20010904//EN"
 "http://www.w3.org/TR/2001/REC-SVG-20010904/DTD/svg10.dtd">
<svg version="1.0" xmlns="http://www.w3.org/2000/svg"
 width="700.000000pt" height="700.000000pt" viewBox="0 0 700.000000 700.000000"
 preserveAspectRatio="xMidYMid meet">
<metadata>
Created by potrace 1.11, written by Peter Selinger 2001-2013
</metadata>
<g transform="translate(0.000000,700.000000) scale(0.100000,-0.100000)"
fill="#000000" stroke="none">
<path d="M4893 6987 c-10 -16 6 -20 24 -6 10 7 15 9 11 5 -4 -5 -4 -14 1 -20
7 -8 -6 -12 -43 -14 -64 -3 -97 -9 -105 -18 -3 -4 2 -4 12 -1 20 7 23 -8 5
-20 -14 -8 -19 -10 -44 -12 -8 0 -13 -5 -10 -10 11 -18 -5 -38 -28 -36 -19 2
-23 -1 -20 -22 2 -19 -2 -23 -19 -21 -22 3 -25 -3 -29 -69 -2 -21 -11 -22 -14
-2 -1 5 -2 14 -3 19 -3 25 -21 7 -21 -21 0 -19 -4 -28 -11 -23 -8 5 -8 1 0
-13 12 -23 6 -33 -20 -33 -14 0 -18 -8 -18 -37 -1 -88 -6 -138 -16 -145 -7 -5
-6 -8 0 -8 7 0 12 -35 14 -87 3 -78 5 -115 10 -148 1 -5 5 -3 11 5 5 8 5 17 1
20 -5 3 -2 11 5 18 12 11 14 9 9 -18 -4 -21 -2 -29 5 -25 13 8 9 -17 -5 -27
-6 -5 -5 -8 3 -8 7 0 12 -13 12 -30 0 -26 4 -30 26 -30 20 0 24 -4 19 -19 -4
-15 0 -20 17 -23 15 -2 24 -11 26 -26 2 -14 9 -22 17 -19 16 7 35 -12 35 -35
0 -13 8 -18 31 -18 21 0 28 -4 23 -12 -5 -9 -2 -8 10 1 13 11 20 11 28 3 9 -9
8 -12 -4 -12 -35 0 -26 -17 10 -19 20 -1 43 -3 50 -3 6 -1 12 -6 12 -11 0 -5
6 -4 14 2 10 9 16 9 21 1 4 -6 13 -9 20 -6 7 2 16 -1 18 -9 4 -8 -2 -12 -18
-11 -13 0 -21 5 -17 10 3 5 0 6 -7 2 -15 -10 -3 -29 15 -22 7 3 16 0 20 -6 5
-7 11 -6 19 6 10 14 14 14 18 2 7 -17 60 -14 82 4 13 11 14 10 9 -3 -6 -18 9
-17 43 1 18 10 24 9 32 -5 6 -10 11 -13 11 -6 0 7 9 10 21 8 16 -3 18 -1 10 8
-6 8 -6 18 -1 27 8 12 10 12 10 1 0 -9 4 -10 13 -4 6 6 26 10 44 9 17 0 31 4
30 9 -1 6 6 9 15 9 10 -1 15 3 12 8 -3 5 -12 7 -20 4 -8 -3 -14 -1 -14 4 0 9
44 15 77 11 6 -1 15 4 19 10 5 8 3 9 -7 4 -12 -7 -12 -6 -1 7 10 13 10 17 0
22 -7 3 -4 5 7 5 39 -2 45 1 45 27 0 23 3 26 25 22 22 -5 25 -2 25 23 0 15 5
31 10 34 6 3 10 11 10 16 0 6 -5 7 -12 3 -7 -4 -8 -3 -4 5 4 6 11 9 15 7 17
-11 32 14 34 56 1 34 5 44 15 40 10 -4 11 -7 2 -12 -9 -5 -9 -13 -3 -25 9 -16
11 -16 16 -1 4 9 7 59 8 111 1 52 5 92 10 89 5 -3 9 -11 9 -19 0 -19 17 -28
26 -14 4 8 3 9 -4 5 -12 -7 -16 7 -14 54 0 16 -1 18 -5 8 -9 -34 -21 -17 -22
30 0 137 -2 152 -21 152 -11 0 -22 5 -26 12 -5 8 -2 9 11 4 18 -7 18 -6 1 13
-10 11 -15 25 -11 30 3 6 2 11 -4 11 -6 0 -8 7 -5 15 4 10 0 13 -15 10 -16 -3
-21 1 -21 18 0 23 -20 62 -20 40 0 -7 -7 -13 -16 -13 -10 0 -14 7 -12 23 2 13
-2 21 -9 20 -7 -2 -13 3 -13 10 0 8 -4 7 -10 -3 -9 -13 -10 -13 -11 0 -1 8 -2
22 -3 30 0 8 -8 15 -16 16 -52 3 -51 3 -40 27 10 20 9 20 -11 -3 -21 -24 -22
-25 -15 -2 4 12 4 22 -1 21 -4 -1 -21 -1 -37 0 -21 1 -27 5 -22 16 3 8 1 15
-5 15 -6 0 -8 4 -5 8 2 4 -61 8 -142 9 -125 1 -148 -2 -159 -16 -11 -13 -12
-13 -8 0 4 11 -1 15 -20 15 -15 0 -29 -4 -32 -9z m350 -6 c4 -1 7 -9 7 -18 0
-15 -2 -14 -15 3 -13 16 -14 16 -9 2 4 -11 1 -18 -7 -18 -7 0 -9 3 -6 7 4 3 2
12 -4 19 -8 9 -6 12 8 9 10 -2 21 -4 26 -4z m-413 -61 c-6 -11 -13 -20 -16
-20 -2 0 0 9 6 20 6 11 13 20 16 20 2 0 0 -9 -6 -20z m694 -186 c3 -8 2 -12
-4 -9 -6 3 -10 10 -10 16 0 14 7 11 14 -7z m-931 -95 c-8 -8 -13 -7 -18 2 -5
8 -4 10 3 5 7 -4 12 -2 12 5 0 7 3 9 7 6 4 -4 2 -12 -4 -18z m46 -460 c-12 -7
-12 -9 0 -9 8 0 12 -3 8 -6 -10 -10 -26 6 -21 21 4 8 11 12 16 9 6 -4 5 -10
-3 -15z m386 -219 c3 -5 1 -10 -4 -10 -6 0 -11 5 -11 10 0 6 2 10 4 10 3 0 8
-4 11 -10z m130 -8 c-3 -3 -11 0 -18 7 -9 10 -8 11 6 5 10 -3 15 -9 12 -12z
m-65 4 c0 -2 -8 -10 -17 -17 -16 -13 -17 -12 -4 4 13 16 21 21 21 13z m117 -9
c0 -8 -6 -14 -13 -14 -7 0 -11 4 -8 8 2 4 -2 10 -8 12 -7 3 -4 6 8 6 11 1 21
-5 21 -12z"/>
<path d="M4710 6886 c0 -2 7 -7 16 -10 8 -3 12 -2 9 4 -6 10 -25 14 -25 6z"/>
<path d="M5603 6535 c-3 -9 -3 -18 -1 -21 3 -3 8 4 11 16 6 23 -1 27 -10 5z"/>
<path d="M5626 6525 c-3 -8 -1 -15 4 -15 6 0 10 7 10 15 0 8 -2 15 -4 15 -2 0
-6 -7 -10 -15z"/>
<path d="M4525 6470 c10 -11 20 -18 23 -16 5 6 -23 36 -34 36 -4 0 1 -9 11
-20z"/>
<path d="M4515 6420 c-3 -5 0 -7 9 -4 11 4 13 0 10 -18 -4 -21 -3 -21 5 -3 13
29 -8 51 -24 25z"/>
<path d="M5606 6397 c3 -10 9 -15 12 -12 3 3 0 11 -7 18 -10 9 -11 8 -5 -6z"/>
<path d="M5522 6170 c-10 -16 -10 -20 2 -20 7 0 16 9 19 20 3 11 2 20 -2 20
-3 0 -12 -9 -19 -20z"/>
<path d="M4215 5949 c-4 -6 -5 -12 -2 -15 2 -3 7 2 10 11 7 17 1 20 -8 4z"/>
<path d="M2592 5941 c2 -21 -8 -26 -52 -26 -27 0 -50 -3 -50 -7 0 -4 -8 -5
-18 -3 -10 2 -19 -2 -19 -9 0 -7 6 -13 13 -13 7 0 10 5 7 10 -3 6 -1 7 5 3 16
-10 15 -27 0 -25 -7 1 -28 1 -45 0 -28 -1 -33 -5 -33 -26 0 -18 -4 -23 -15
-19 -22 9 -44 -13 -37 -38 3 -13 1 -19 -6 -15 -15 10 -42 -3 -36 -17 3 -7 0
-24 -5 -38 -7 -18 -6 -29 2 -37 6 -6 7 -11 1 -11 -5 0 -14 4 -20 10 -6 6 -15
6 -24 0 -13 -9 -13 -10 0 -10 13 0 13 -1 0 -10 -11 -7 -11 -10 -2 -10 9 0 10
-5 4 -17 -11 -21 -10 -173 1 -190 4 -6 3 -14 -2 -18 -6 -3 -7 -13 -4 -21 4
-11 8 -12 13 -4 3 6 14 8 24 4 11 -4 14 -10 7 -18 -7 -9 -6 -19 4 -34 11 -15
12 -23 4 -28 -8 -4 -7 -9 2 -15 20 -12 31 -11 23 3 -4 7 -3 8 4 4 7 -4 12 -18
12 -32 0 -19 5 -24 25 -24 20 0 25 -5 25 -25 0 -23 13 -31 43 -26 5 1 6 -8 2
-19 -4 -13 -2 -21 7 -22 7 0 20 -2 28 -2 8 -1 14 -8 12 -15 -6 -26 7 -44 22
-32 16 14 26 4 26 -27 0 -17 4 -22 14 -19 17 7 38 -15 34 -34 -2 -7 4 -14 12
-15 37 -3 41 -5 36 -13 -4 -5 0 -12 6 -14 10 -4 10 -6 1 -6 -7 -1 -13 -5 -13
-11 0 -5 3 -9 8 -9 27 4 43 -3 40 -18 -2 -10 4 -19 12 -19 8 -1 21 -2 29 -3
10 -1 11 -4 2 -15 -14 -17 1 -31 34 -31 11 0 20 -7 21 -15 3 -39 5 -42 24 -37
21 5 25 -7 20 -63 -2 -29 -21 -44 -32 -27 -8 13 -10 9 -12 -22 -1 -22 -16 -41
-16 -22 0 8 -6 6 -17 -5 -10 -9 -18 -24 -18 -33 0 -10 -7 -15 -20 -13 -21 3
-25 -6 -28 -65 0 -12 -4 -20 -7 -18 -3 2 -14 -3 -25 -11 -10 -8 -15 -14 -9
-15 5 0 0 -4 -11 -9 l-20 -9 20 -1 c14 -2 10 -4 -10 -9 -23 -5 -30 -12 -29
-29 1 -12 -3 -22 -8 -22 -5 0 -6 -4 -3 -10 3 -5 2 -17 -3 -26 -6 -11 -11 -13
-16 -5 -4 6 -2 11 3 11 16 0 13 17 -3 23 -7 3 -13 0 -13 -6 1 -48 -4 -87 -12
-83 -5 3 -11 -1 -15 -9 -3 -8 -1 -17 4 -20 4 -3 11 1 13 7 4 9 6 10 6 1 1 -16
-16 -26 -24 -13 -12 19 -21 10 -23 -21 -3 -41 -9 -50 -29 -42 -13 5 -15 1 -11
-20 3 -15 2 -27 -3 -27 -4 0 -6 -8 -4 -17 1 -10 -2 -26 -7 -35 -5 -12 -5 -18
1 -18 6 0 8 -6 5 -14 -3 -8 -13 -13 -23 -11 -10 2 -18 -3 -18 -10 0 -7 8 -12
18 -10 10 2 21 0 24 -6 4 -5 -5 -9 -18 -9 -13 0 -24 -6 -25 -12 -1 -18 -1
-287 0 -380 1 -43 5 -79 10 -79 4 -1 12 -2 17 -3 5 0 13 -5 18 -10 5 -6 2 -6
-6 -1 -11 6 -13 4 -6 -11 4 -10 9 -41 12 -69 2 -27 5 -55 5 -62 1 -7 5 -10 10
-7 4 3 8 0 8 -7 0 -7 3 -9 6 -6 4 4 1 13 -5 21 -9 10 -9 16 -1 21 6 4 14 4 17
1 4 -3 0 -6 -8 -6 -11 0 -11 -2 1 -10 13 -8 13 -13 2 -31 -8 -11 -9 -18 -3
-14 7 4 11 -5 11 -24 0 -31 13 -41 26 -20 10 17 24 -10 25 -51 0 -19 4 -44 8
-55 7 -18 8 -18 18 -1 6 12 13 15 17 8 3 -6 2 -14 -4 -17 -8 -5 -7 -11 1 -21
6 -8 9 -23 6 -34 -7 -26 0 -25 24 3 10 12 18 16 19 10 0 -7 -4 -13 -10 -13 -5
0 -10 -4 -10 -10 0 -5 6 -10 14 -10 8 0 12 -9 11 -24 -3 -20 1 -24 16 -21 24
5 29 -5 38 -86 1 -6 10 -7 56 -10 14 -1 28 -5 31 -10 3 -5 -3 -6 -12 -2 -13 5
-15 3 -9 -8 7 -11 6 -12 -6 -2 -13 10 -16 10 -16 -2 0 -9 10 -15 22 -15 28 0
37 -10 24 -26 -8 -10 -5 -15 16 -20 24 -6 26 -11 23 -40 -2 -18 0 -30 4 -28 4
3 5 -2 2 -10 -6 -16 -17 -20 -41 -17 -7 1 -11 -9 -10 -26 1 -19 -3 -28 -13
-29 -8 -1 -21 -2 -28 -3 -7 0 -10 -5 -7 -11 3 -5 2 -18 -4 -28 -6 -11 -6 -24
0 -34 7 -12 5 -16 -6 -14 -8 1 -18 6 -22 11 -4 4 -3 5 4 1 8 -4 11 1 10 14 -1
11 -6 19 -11 17 -9 -3 -16 -35 -17 -79 0 -10 -3 -17 -7 -17 -37 6 -53 -14 -27
-33 6 -5 5 -8 -4 -8 -7 0 -11 -6 -7 -15 3 -8 1 -15 -5 -15 -5 0 -12 7 -15 15
-4 8 -11 12 -16 9 -5 -4 3 -15 19 -25 17 -12 22 -19 12 -19 -8 0 -21 6 -28 13
-11 9 -13 9 -7 0 4 -7 3 -13 -2 -13 -5 0 -8 -11 -7 -25 2 -14 -1 -25 -6 -25
-5 0 -4 -11 1 -25 7 -19 6 -23 -5 -18 -8 3 -13 8 -11 12 3 4 1 13 -4 21 -7 12
-9 11 -10 -5 -2 -50 -5 -75 -11 -75 -3 0 -5 -12 -3 -26 2 -21 -1 -25 -17 -21
-10 3 -17 1 -14 -3 3 -5 1 -10 -4 -12 -6 -1 -11 -44 -12 -95 -2 -50 -7 -89
-11 -87 -4 3 -8 1 -8 -5 0 -5 5 -12 10 -14 6 -3 5 -4 -2 -3 -7 2 -13 16 -12
34 0 17 -4 28 -9 25 -5 -3 -7 -21 -5 -39 2 -19 0 -34 -5 -34 -5 0 -4 -6 2 -14
7 -8 8 -16 4 -19 -4 -3 -7 -76 -6 -164 2 -204 1 -193 14 -193 5 0 8 4 5 8 -3
5 0 9 7 9 9 0 13 -23 15 -74 1 -63 5 -77 27 -101 19 -20 25 -38 25 -71 0 -24
3 -41 6 -38 4 3 15 2 26 -4 13 -7 16 -14 10 -22 -11 -13 11 -41 22 -30 3 4 6
1 6 -5 0 -7 -7 -12 -16 -12 -13 0 -14 -3 -5 -13 6 -8 10 -16 8 -18 -1 -2 6 5
15 16 9 11 14 24 11 29 -3 5 -1 6 6 2 8 -5 9 -12 2 -20 -6 -7 -6 -18 -1 -25 4
-8 6 -20 3 -28 -3 -8 3 -13 17 -13 16 0 20 -4 16 -16 -3 -8 -2 -12 4 -9 9 6
14 -8 11 -28 -1 -5 8 -5 20 -2 15 5 19 4 15 -4 -4 -6 -2 -11 3 -11 6 0 11 -5
11 -11 0 -8 -5 -7 -15 1 -13 11 -18 11 -28 0 -10 -10 -9 -12 5 -7 9 3 22 0 28
-8 6 -7 20 -12 31 -10 23 5 24 1 2 -16 -14 -12 -16 -12 -8 0 5 10 4 12 -4 7
-15 -10 -3 -29 15 -22 8 3 14 1 14 -5 0 -6 5 -7 10 -4 7 4 9 -3 6 -18 -3 -15
1 -24 10 -24 7 0 10 5 7 11 -4 8 -3 8 6 0 13 -12 18 -80 7 -92 -4 -4 -12 -8
-17 -8 -5 -1 -13 -2 -19 -3 -5 0 -10 -13 -10 -28 0 -21 -3 -24 -12 -15 -7 7
-17 12 -22 12 -6 0 -4 -5 4 -10 12 -8 10 -10 -9 -10 -18 0 -21 -3 -12 -13 13
-16 5 -27 -21 -27 -11 0 -18 -7 -18 -20 0 -20 -32 -44 -44 -33 -3 3 -6 1 -6
-6 0 -7 -3 -10 -7 -8 -5 3 -14 -2 -21 -9 -12 -13 -9 -14 15 -9 21 5 24 4 13
-4 -8 -6 -23 -11 -32 -11 -10 0 -18 -5 -18 -10 0 -7 -7 -7 -22 0 l-23 11 23
-17 c27 -20 29 -39 2 -24 -20 11 -24 4 -23 -38 1 -7 -5 -11 -13 -8 -8 3 -14 1
-14 -5 0 -6 -4 -8 -9 -4 -5 3 -11 -5 -13 -17 -2 -15 -11 -24 -26 -26 -12 -2
-20 -8 -17 -13 4 -5 2 -9 -4 -9 -6 0 -7 -7 -4 -17 4 -10 2 -14 -4 -10 -19 12
-41 -3 -36 -23 3 -10 -1 -21 -8 -26 -8 -5 -11 -3 -7 8 4 8 2 21 -4 29 -8 11
-9 10 -4 -3 3 -10 0 -21 -7 -25 -17 -11 -45 -49 -29 -39 7 4 12 2 12 -5 0 -6
-8 -9 -20 -6 -20 5 -22 2 -24 -38 -1 -13 -8 -20 -21 -20 -11 0 -20 -7 -21 -15
0 -8 -2 -17 -3 -20 -8 -16 -8 -191 0 -196 5 -3 5 -12 -1 -23 -6 -12 -5 -22 1
-28 8 -8 7 -13 0 -17 -6 -4 -11 -12 -11 -18 0 -7 5 -6 15 2 8 6 20 10 27 7 8
-4 7 -6 -4 -6 -10 -1 -18 -5 -18 -10 0 -5 8 -8 18 -7 12 1 16 -5 14 -21 -2
-15 2 -23 11 -23 8 0 20 -7 27 -15 9 -10 9 -15 1 -15 -6 0 -11 5 -11 10 0 6
-7 10 -15 10 -8 0 -12 -6 -9 -15 3 -8 9 -14 12 -13 23 3 32 -5 32 -27 0 -15 5
-25 13 -24 28 3 48 -2 42 -11 -3 -5 -1 -18 5 -27 11 -17 11 -17 6 0 -7 21 1
22 20 2 9 -8 28 -13 44 -11 20 2 35 -3 47 -18 17 -19 17 -20 1 -7 -15 11 -18
11 -18 0 0 -11 -2 -11 -10 1 -8 13 -10 13 -10 -1 0 -14 19 -16 148 -16 114 0
149 3 149 13 0 7 -5 10 -11 7 -6 -3 -5 0 2 8 7 7 29 14 50 14 21 1 38 7 38 13
1 7 2 17 3 22 0 6 9 10 19 10 22 0 47 36 29 43 -7 3 0 6 16 6 25 1 33 13 28
43 0 4 11 5 24 2 21 -4 25 -1 25 21 0 20 5 25 26 25 14 0 23 4 20 9 -11 17 6
41 29 41 18 0 23 5 20 20 -4 18 9 26 38 21 4 0 7 7 7 17 0 9 5 24 10 32 9 13
11 13 20 0 8 -13 10 -13 11 3 1 9 2 23 3 30 0 6 14 13 29 15 23 3 27 7 22 23
-5 14 -2 20 7 18 30 -4 38 2 38 30 0 22 4 29 18 26 23 -3 42 13 35 31 -3 10 3
14 21 15 14 1 30 2 36 3 10 1 45 -21 71 -46 9 -9 21 -13 25 -10 4 4 3 0 -2 -8
-15 -27 -14 -47 2 -26 8 11 14 24 14 29 0 4 5 5 11 1 8 -4 7 -9 -2 -16 -11 -7
-11 -11 -1 -15 6 -2 10 -9 6 -14 -3 -5 0 -9 5 -9 6 0 11 -5 11 -11 0 -5 -6 -7
-12 -3 -8 4 -9 3 -5 -2 5 -5 19 -9 30 -9 16 0 22 -6 21 -20 -1 -14 6 -21 18
-22 17 -2 18 1 7 15 -12 16 -12 16 5 1 9 -9 18 -28 19 -43 2 -27 18 -37 26
-15 2 7 -1 9 -8 5 -7 -5 -9 -1 -4 10 5 14 8 13 19 -7 7 -13 10 -27 8 -31 -2
-3 0 -9 5 -12 5 -4 12 -2 16 4 3 5 11 10 17 10 5 0 0 -9 -13 -20 -13 -10 -19
-19 -13 -20 5 0 16 6 24 13 8 6 11 8 7 3 -3 -5 1 -15 11 -22 10 -8 12 -13 5
-14 -7 0 -10 -7 -7 -15 4 -9 11 -15 18 -14 26 3 34 -2 29 -21 -4 -16 0 -20 21
-20 21 0 26 -5 26 -24 0 -20 4 -24 25 -21 24 2 30 -8 26 -43 -1 -7 2 -12 6
-11 21 3 31 -3 36 -21 3 -13 11 -18 26 -15 12 2 21 0 21 -5 0 -4 7 -11 16 -14
9 -4 13 -2 8 5 -4 8 -1 8 13 1 11 -6 25 -7 35 -1 12 7 16 5 14 -8 -2 -9 -9
-19 -17 -21 -11 -3 -11 -1 1 8 13 10 12 11 -3 6 -10 -3 -24 -6 -30 -7 -7 0 -3
-4 8 -8 35 -14 256 -13 273 1 12 10 14 10 8 0 -4 -6 -2 -12 3 -12 14 0 14 17
1 25 -6 4 -7 11 -4 17 4 7 9 6 14 -3 7 -10 12 -10 22 -1 8 6 24 10 36 7 18 -3
22 1 22 21 0 19 5 24 25 24 20 0 25 5 25 25 0 14 3 24 8 24 23 -4 43 3 41 14
-3 24 1 37 12 37 5 0 7 -6 3 -12 -4 -7 0 -6 9 2 11 10 17 37 19 88 1 39 4 72
6 72 2 0 12 -4 22 -10 16 -9 18 -5 16 38 -1 26 -5 52 -9 59 -4 6 -3 14 3 18 5
3 10 12 10 18 0 8 -3 8 -9 -1 -4 -8 -11 -13 -15 -13 -16 2 -18 0 -6 -14 7 -8
9 -15 5 -15 -4 0 -2 -7 5 -15 10 -12 10 -15 0 -15 -10 0 -10 -3 0 -15 14 -17
5 -36 -13 -29 -15 5 -17 52 -4 72 5 6 4 12 -1 12 -5 0 -10 30 -12 67 -3 95 -2
93 -11 87 -5 -2 -6 -12 -3 -22 5 -13 4 -14 -4 -4 -5 8 -12 13 -16 13 -17 -2
-17 0 1 17 10 9 14 14 8 10 -16 -11 -37 36 -23 50 7 7 4 10 -8 9 -11 -1 -22
-9 -26 -17 -5 -12 -7 -11 -7 4 -1 10 -9 25 -18 32 -17 13 -17 14 0 8 9 -3 17
-2 17 4 0 6 -11 9 -25 7 -25 -2 -29 4 -26 38 2 12 -5 17 -24 17 -19 0 -26 4
-22 14 3 8 -1 20 -9 26 -11 10 -14 10 -14 -1 0 -11 -2 -11 -10 1 -5 8 -10 11
-11 5 -1 -5 -4 4 -8 20 -5 21 -12 29 -24 27 -12 -2 -17 4 -17 23 0 14 -5 25
-11 25 -6 0 -9 -8 -7 -18 3 -10 0 -19 -6 -19 -7 0 -12 9 -12 20 1 12 -6 21
-17 23 -11 1 -22 6 -25 10 -4 4 1 4 11 1 12 -5 17 -1 17 12 0 14 -6 18 -25 16
-15 -2 -25 2 -25 10 0 7 -6 16 -12 18 -8 3 -5 6 5 6 10 1 15 6 12 11 -4 6 -10
8 -15 5 -17 -10 -38 6 -33 26 4 16 0 19 -25 19 -27 0 -30 3 -27 26 2 18 -2 24
-11 20 -7 -3 -16 -1 -19 4 -3 5 -12 7 -19 4 -7 -3 -19 3 -26 13 -12 15 -12 16
0 5 21 -18 30 -15 30 11 0 18 -2 19 -10 7 -7 -11 -10 -11 -10 -2 0 7 -4 10
-10 7 -6 -4 -10 5 -10 19 0 17 6 26 16 26 9 0 12 -5 8 -12 -4 -7 2 -4 13 7 11
11 16 22 12 23 -5 2 -9 11 -9 19 0 9 6 13 14 10 17 -7 36 11 36 35 0 10 3 17
8 17 29 -5 42 3 42 27 0 14 4 23 10 19 14 -9 13 8 -2 23 -7 7 -8 12 -4 12 5 0
15 -8 23 -17 8 -10 12 -12 8 -5 -3 6 0 12 7 12 9 0 9 3 -2 10 -13 9 -13 10 0
11 8 1 21 1 28 0 6 -1 12 2 13 6 0 4 2 15 5 23 2 8 8 31 13 50 5 19 9 29 10
21 1 -11 4 -11 16 -1 9 7 15 29 15 52 0 24 4 37 10 33 6 -3 10 -1 10 5 0 6 5
8 12 4 6 -4 8 -3 4 4 -3 5 0 13 6 16 7 3 0 4 -17 1 l-30 -4 33 15 c24 10 31
18 24 27 -12 15 -12 47 0 47 5 0 7 4 4 8 -2 4 -1 14 3 21 6 9 10 7 14 -8 3
-12 1 -21 -4 -21 -5 0 -9 -4 -9 -8 0 -5 7 -9 15 -9 8 0 12 4 9 8 -2 4 2 10 8
12 10 4 10 6 1 6 -14 1 -18 31 -5 31 4 0 7 34 7 75 0 43 4 75 10 75 6 0 3 5
-5 10 -9 6 -10 10 -3 10 8 0 9 9 3 29 -6 20 -5 32 3 35 9 5 9 8 -1 12 -13 6
-7 24 9 24 6 0 8 -4 5 -8 -3 -5 0 -9 7 -9 7 0 13 13 14 29 1 26 -1 27 -12 11
-12 -15 -16 -16 -27 -4 -7 8 -8 12 -3 9 6 -3 17 3 27 13 15 16 15 17 -2 22
-17 4 -35 57 -19 57 5 0 5 10 1 23 -5 12 -8 46 -8 74 1 29 -3 53 -9 53 -5 0
-3 5 5 10 10 6 11 10 3 10 -15 0 -13 21 2 32 8 6 -20 12 -45 10 -3 0 -6 8 -6
18 0 10 5 16 10 13 5 -4 6 -1 0 8 -5 8 -7 23 -5 33 2 14 -2 17 -14 13 -9 -4
-14 -3 -10 2 3 5 -2 17 -11 25 -8 9 -11 16 -5 16 5 0 15 -8 20 -17 10 -17 10
-17 11 0 0 11 -9 21 -20 24 -11 3 -17 9 -14 14 3 5 9 7 14 4 5 -3 11 -1 15 4
3 6 -3 8 -15 6 -17 -3 -20 1 -20 36 0 37 -2 39 -20 29 -11 -6 -20 -7 -19 -3 4
25 -2 63 -10 59 -11 -7 -9 13 2 32 6 8 0 12 -21 12 -27 0 -30 3 -28 30 1 17
-4 32 -11 34 -7 3 -13 1 -13 -5 0 -6 -5 -7 -11 -3 -16 9 10 24 30 17 10 -4 9
0 -4 10 -14 11 -22 12 -27 4 -3 -6 -8 7 -10 28 -2 24 -9 40 -18 42 -12 4 -12
3 -1 -5 7 -5 9 -12 4 -15 -19 -12 -30 6 -36 61 -2 15 -7 27 -13 27 -5 0 -8 -2
-7 -5 1 -3 3 -9 5 -15 1 -5 -1 -10 -7 -10 -5 0 -9 3 -8 7 2 4 -4 19 -12 34 -8
15 -11 32 -8 37 4 6 -3 8 -15 5 -19 -5 -22 -2 -22 22 0 23 4 28 18 25 10 -2
25 1 33 6 8 5 9 9 2 9 -6 0 -9 9 -6 21 4 16 8 17 14 7 7 -10 9 -10 9 0 0 6 6
12 14 12 9 0 12 7 9 20 -4 16 0 20 21 20 22 0 26 4 27 33 1 17 1 35 0 40 0 4
4 7 10 7 6 0 9 -6 6 -14 -4 -10 0 -14 13 -13 14 1 16 4 8 14 -7 9 -7 13 1 13
6 0 10 5 9 12 -2 7 6 12 17 13 11 0 20 5 20 10 0 6 3 15 6 20 4 6 5 20 4 33
-2 21 6 26 33 23 8 -1 12 13 13 39 2 54 3 57 13 67 5 5 7 -1 3 -14 -3 -13 -1
-23 5 -23 5 0 6 -6 2 -12 -4 -7 -3 -10 1 -6 9 9 16 45 18 99 2 32 5 36 24 33
12 -2 25 1 29 7 5 8 3 9 -6 4 -10 -6 -11 -4 -4 6 9 16 10 20 12 67 1 17 7 32
13 32 5 0 7 -4 4 -10 -3 -5 0 -10 7 -10 8 0 14 11 14 28 4 149 9 222 16 222 5
0 6 6 1 13 -14 23 -12 43 5 53 15 10 17 7 18 -17 1 -16 -3 -29 -10 -29 -6 0
-4 -5 4 -10 13 -9 13 -10 0 -10 -13 0 -13 -2 0 -11 13 -9 13 -10 -2 -6 -17 6
-19 -16 -3 -30 4 -5 5 -2 0 6 -6 10 -4 13 6 9 12 -5 15 7 15 63 0 38 -3 69 -8
69 -4 0 -8 5 -8 11 0 5 3 8 8 5 4 -2 7 22 7 53 0 50 -2 57 -17 53 -10 -2 -18
-8 -18 -13 0 -5 8 -5 18 -2 15 6 15 5 3 -10 -11 -14 -11 -17 0 -17 11 0 11 -2
-1 -10 -13 -8 -13 -10 -1 -10 11 0 10 -3 -3 -13 -15 -11 -16 -18 -7 -34 8 -16
7 -23 -2 -31 -10 -8 -13 4 -13 56 -3 205 -8 272 -20 272 -8 0 -11 -6 -8 -15 4
-8 1 -15 -7 -15 -7 0 -9 3 -6 6 3 4 2 15 -4 25 -7 13 -6 19 1 19 7 0 8 6 2 18
-5 9 -8 25 -7 34 2 10 -1 21 -7 24 -6 4 -5 10 3 15 11 7 11 9 1 9 -7 0 -11 4
-7 9 3 6 -3 8 -14 6 -11 -2 -22 3 -25 11 -3 8 -1 14 5 14 5 0 4 6 -3 14 -7 8
-16 12 -20 9 -4 -2 -5 3 -2 11 3 9 9 14 13 12 4 -3 7 4 7 15 0 18 -2 18 -12 5
-6 -9 -15 -12 -19 -8 -5 4 -5 2 -1 -5 3 -6 2 -15 -4 -18 -6 -4 -10 -3 -9 2 1
4 1 26 0 49 -1 35 -4 40 -23 40 -18 -1 -22 4 -20 22 3 19 -5 26 -29 24 -3 -1
-6 6 -6 13 0 11 4 12 13 4 8 -7 14 -7 19 1 3 5 1 10 -5 10 -6 0 -8 4 -5 10 8
12 -28 0 -36 -13 -4 -5 -5 9 -4 30 2 36 0 40 -22 37 -18 -2 -23 3 -23 22 0 19
-5 24 -27 24 -22 0 -25 2 -13 10 10 6 11 10 2 10 -6 0 -11 6 -10 13 2 6 -3 11
-9 9 -15 -2 -17 14 -3 23 17 11 0 26 -22 19 -14 -4 -18 -2 -14 5 5 7 -2 11
-18 11 -21 0 -25 4 -24 30 1 17 5 30 10 30 5 0 7 -4 4 -9 -3 -5 0 -11 7 -14 7
-3 13 5 13 19 1 13 5 32 10 42 4 9 8 20 8 25 1 4 4 7 9 7 4 0 10 0 14 0 3 0
-2 -10 -13 -22 -10 -13 -15 -20 -10 -16 5 4 14 4 21 -2 8 -6 11 -2 12 13 1 42
10 71 21 75 15 5 15 -4 1 -29 -9 -19 -9 -19 10 -10 12 7 18 17 15 26 -4 10 0
15 14 15 11 0 26 8 33 17 12 15 12 16 -1 8 -24 -15 -37 -14 -37 2 0 7 6 12 12
9 18 -6 35 8 40 34 6 31 10 33 25 15 11 -13 10 -15 -6 -9 -16 5 -16 4 -4 -5
12 -9 13 -11 1 -11 -8 0 -12 -2 -9 -5 3 -3 12 -3 21 1 12 4 15 13 11 29 -5 19
-2 22 20 20 14 -2 26 1 26 7 0 6 -7 7 -16 4 -10 -4 -13 -2 -8 6 5 8 2 9 -10 5
-10 -4 -15 -3 -11 3 4 6 12 10 18 9 27 -3 47 2 47 12 0 5 -4 8 -9 5 -5 -4 -8
0 -7 6 2 17 20 17 23 0 1 -8 5 -17 9 -20 4 -4 5 0 1 9 -3 9 1 28 8 42 7 14 10
29 7 33 -4 4 -1 4 6 0 7 -4 12 -2 12 5 0 7 3 9 7 6 3 -4 -2 -16 -11 -26 -12
-14 -14 -19 -4 -17 24 3 37 16 31 31 -3 9 0 21 6 29 6 7 8 16 5 19 -4 4 3 5
15 2 20 -4 25 4 24 41 -1 17 30 10 35 -7 3 -11 1 -11 -7 1 -10 14 -15 3 -8
-17 5 -17 24 -9 24 11 1 49 5 57 36 70 17 8 26 15 19 15 -7 1 -10 6 -7 11 4 6
12 7 18 3 7 -3 3 4 -8 17 l-20 23 21 -11 c29 -15 34 -7 34 50 0 26 5 48 10 48
6 0 11 -4 11 -10 1 -5 2 -14 3 -19 0 -5 4 -13 8 -17 4 -3 5 4 3 17 -3 13 -10
29 -17 34 -7 6 -14 17 -16 25 -1 8 9 2 23 -13 14 -15 25 -24 25 -20 0 5 -12
21 -27 38 -17 18 -21 26 -11 22 9 -3 19 -3 21 1 2 4 2 2 1 -5 -2 -7 0 -14 5
-17 4 -3 7 17 7 45 0 35 -5 49 -15 49 -11 0 -11 -3 0 -17 12 -14 12 -16 0 -8
-10 6 -12 4 -6 -5 5 -9 4 -11 -3 -6 -8 5 -10 2 -6 -8 3 -9 2 -16 -3 -16 -5 0
-9 9 -10 20 -1 11 3 20 8 20 5 0 4 9 -3 19 -9 15 -9 23 3 37 9 11 9 15 2 10
-10 -5 -13 6 -13 43 0 43 -3 51 -19 51 -13 0 -20 9 -24 29 -5 23 -11 29 -27
26 -13 -3 -20 1 -20 12 0 13 3 13 15 3 11 -9 15 -9 15 -1 0 7 5 9 12 5 7 -4 8
-3 4 4 -4 6 -13 9 -20 6 -7 -3 -25 9 -40 26 -14 17 -26 28 -26 23 0 -5 5 -14
12 -21 9 -9 8 -12 -5 -12 -9 0 -16 3 -16 8 4 23 -4 32 -25 32 -14 0 -28 5 -31
10 -3 6 -11 10 -16 10 -6 0 -7 -5 -3 -12 4 -7 3 -8 -5 -4 -18 12 -2 27 24 22
14 -3 27 -1 29 3 5 7 -35 12 -119 15 -27 0 -54 6 -58 11 -6 7 -10 6 -13 -2 -3
-7 -12 -9 -20 -6 -8 3 -11 10 -7 17 5 7 0 3 -9 -7 -13 -13 -18 -15 -18 -6 0 9
-3 10 -8 3 -4 -6 -28 -10 -54 -9 -27 0 -48 -3 -48 -8 0 -4 -5 -5 -12 -1 -7 4
-8 3 -4 -4 4 -6 14 -8 24 -5 15 6 15 5 -1 -11 -17 -18 -19 -18 -33 0 -12 17
-13 17 -8 2 5 -15 0 -18 -25 -18 -26 0 -31 -4 -31 -25 0 -21 -4 -25 -24 -21
-19 3 -23 0 -20 -20 2 -24 -25 -42 -45 -29 -6 3 -8 -5 -5 -20 4 -21 1 -25 -21
-25 -21 0 -25 -5 -25 -28 0 -23 -4 -28 -22 -28 -17 1 -23 -5 -23 -19 0 -11 -7
-20 -16 -20 -23 0 -53 -32 -36 -38 6 -3 0 -6 -15 -6 -23 -1 -28 -6 -28 -26 0
-20 -5 -25 -25 -25 -14 0 -24 -3 -24 -7 4 -24 -3 -44 -13 -42 -28 3 -35 -2
-33 -26 3 -21 0 -24 -19 -19 -20 5 -24 1 -29 -24 -5 -24 -10 -29 -27 -25 -16
4 -20 1 -20 -21 0 -30 -15 -33 -44 -8 -13 10 -16 11 -9 2 9 -12 7 -15 -11 -15
-14 0 -23 6 -23 18 -2 19 -33 55 -33 38 0 -6 -4 -11 -10 -11 -5 0 -10 7 -10
15 0 8 5 15 10 15 7 0 6 5 -2 13 -6 8 -23 12 -37 10 -15 -2 -21 -1 -15 2 18 9
4 47 -13 40 -11 -3 -13 -1 -9 10 5 15 -26 39 -54 40 -8 0 -16 10 -18 22 -2 12
-11 27 -20 35 -11 9 -14 10 -8 1 4 -7 2 -13 -3 -13 -6 0 -11 10 -11 23 0 12
-5 29 -11 37 -9 12 -10 12 -5 -4 5 -15 4 -17 -8 -7 -11 9 -15 9 -20 -1 -3 -7
-4 -3 -2 10 4 19 -1 26 -26 34 -22 8 -28 15 -25 29 3 11 0 19 -5 19 -6 0 -17
8 -24 18 -13 16 -14 16 -7 -2 5 -14 3 -17 -6 -12 -7 5 -11 17 -8 27 3 10 1 22
-4 25 -5 3 -9 1 -9 -5 0 -20 -29 1 -32 22 -2 14 -11 23 -25 25 -15 2 -23 10
-23 23 0 14 -7 19 -25 19 -23 0 -31 14 -25 45 1 5 -8 1 -19 -9 -22 -20 -28
-32 -12 -21 5 3 12 1 16 -5 3 -5 0 -10 -8 -10 -21 0 -27 11 -17 29 7 15 1 17
-51 16 -32 0 -59 3 -59 8 0 6 -5 6 -12 1 -12 -8 -21 -9 -52 -5 -5 0 -3 7 3 14
8 10 7 14 -4 14 -7 0 -14 -3 -13 -6z m1332 -97 c3 -8 2 -12 -4 -9 -6 3 -10 10
-10 16 0 14 7 11 14 -7z m-139 -144 c3 -5 1 -10 -4 -10 -6 0 -11 5 -11 10 0 6
2 10 4 10 3 0 8 -4 11 -10z m710 0 c3 -6 -1 -7 -9 -4 -18 7 -21 14 -7 14 6 0
13 -4 16 -10z m-1275 -184 c0 -11 -19 -15 -25 -6 -3 5 1 10 9 10 9 0 16 -2 16
-4z m760 -696 c0 -5 -7 -7 -15 -4 -8 4 -15 8 -15 10 0 2 7 4 15 4 8 0 15 -4
15 -10z m40 -105 c-7 -8 -17 -12 -22 -9 -6 4 -5 10 3 15 22 14 33 10 19 -6z
m-1301 -108 c0 -9 -2 -8 -6 1 -2 6 -10 9 -15 6 -7 -4 -8 -2 -4 5 9 13 26 5 25
-12z m1585 -306 c3 -5 -2 -15 -11 -22 -12 -10 -14 -10 -9 -1 4 7 2 12 -6 12
-9 0 -9 3 2 10 18 12 18 12 24 1z m-1817 -66 c0 -22 -14 -18 -20 4 -3 13 0 18
7 15 7 -3 13 -11 13 -19z m887 -22 c4 -10 4 -14 0 -10 -4 4 -12 2 -19 -3 -8
-7 -12 -5 -12 5 0 8 4 12 9 9 4 -3 8 0 8 5 0 16 7 13 14 -6z m32 8 c-4 -5 3
-7 13 -4 16 4 19 1 14 -16 -5 -20 -3 -22 37 -25 9 -1 14 -10 13 -24 -3 -21 6
-26 35 -23 6 1 12 -2 12 -7 0 -4 -6 -14 -12 -21 -10 -11 -10 -13 0 -7 6 4 12
2 12 -4 0 -6 5 -8 10 -5 6 3 10 0 10 -7 0 -9 3 -9 10 2 7 11 10 8 10 -16 0
-28 3 -31 25 -26 14 2 25 1 24 -4 -5 -27 3 -44 20 -44 10 0 25 -8 32 -17 8 -9
9 -14 3 -10 -7 4 -14 1 -17 -6 -3 -8 6 -12 25 -13 42 -2 58 -21 28 -32 -23 -8
-22 -9 13 -16 32 -6 37 -10 37 -36 0 -41 -10 -65 -21 -48 -7 10 -9 11 -9 0 0
-7 -4 -11 -9 -8 -5 3 -14 -1 -20 -8 -8 -10 -9 -16 -1 -21 5 -3 10 -11 10 -17
0 -7 -4 -7 -13 0 -8 7 -18 6 -31 -4 -10 -7 -23 -11 -27 -8 -5 3 -9 3 -9 -1 0
-3 10 -10 23 -14 20 -8 21 -10 3 -16 -11 -5 -21 -3 -26 5 -6 9 -10 2 -12 -21
-2 -26 -8 -35 -25 -37 -15 -2 -23 -10 -23 -23 0 -11 -4 -17 -10 -14 -5 3 -10
1 -10 -5 0 -6 -4 -9 -8 -6 -4 2 -14 0 -22 -5 -13 -8 -13 -10 0 -19 8 -5 12
-10 8 -11 -25 -5 -34 -4 -40 6 -4 5 -8 -2 -8 -17 0 -16 -5 -28 -11 -28 -5 0
-7 5 -3 12 5 7 3 8 -6 3 -10 -6 -9 -11 6 -23 18 -14 18 -14 -3 -9 -26 6 -38
-8 -36 -38 1 -17 1 -17 -4 -2 -5 18 -5 18 -19 0 -11 -15 -13 -15 -14 -2 0 8 6
21 13 29 6 8 1 6 -12 -5 -23 -19 -24 -19 -18 -1 6 15 3 17 -13 13 -19 -5 -25
5 -21 38 0 6 -9 12 -21 12 -18 2 -20 0 -8 -7 11 -7 12 -10 2 -10 -8 0 -16 9
-19 20 -3 11 -12 20 -20 20 -8 0 -11 -5 -7 -12 4 -7 3 -8 -5 -4 -14 9 -5 26
15 26 8 0 14 4 14 9 0 5 -9 7 -20 4 -11 -3 -21 0 -21 6 -1 6 -2 17 -3 24 0 6
-13 13 -28 15 -22 3 -28 9 -28 28 0 13 -3 23 -7 23 -23 -4 -33 3 -33 21 0 15
-7 20 -26 20 -14 0 -23 4 -19 10 6 10 -6 14 -35 11 -13 -2 -13 -1 0 8 8 5 18
7 22 5 10 -6 11 10 1 19 -3 4 -12 2 -19 -4 -10 -8 -15 -8 -18 2 -12 33 -11 85
0 97 7 7 11 19 8 27 -7 18 17 20 34 3 9 -9 11 -6 7 10 -2 12 0 22 5 22 5 0 7
6 4 14 -3 9 3 14 20 15 49 3 56 4 56 13 0 5 -7 8 -16 6 -9 -2 -18 4 -19 13 -2
9 3 16 11 16 7 0 11 -4 8 -9 -3 -4 -1 -8 4 -8 5 0 13 10 17 23 4 12 8 25 10
30 1 4 3 10 4 13 0 3 6 2 12 -1 7 -5 5 -13 -5 -24 -14 -16 -13 -17 9 -17 18 0
21 3 14 12 -7 8 -7 14 1 19 6 3 8 11 5 16 -4 5 4 8 16 6 16 -1 23 4 25 22 3
14 9 30 15 37 7 8 6 14 -3 18 -7 3 -1 3 14 1 15 -2 32 3 39 11 8 10 15 11 25
4 9 -9 12 -7 9 7 -3 21 3 33 16 33 6 0 8 -4 5 -9z m954 -87 c0 -8 -19 -13 -24
-6 -3 5 1 9 9 9 8 0 15 -2 15 -3z m-1083 -20 c0 -7 -6 -10 -14 -7 -7 3 -13 8
-13 12 0 4 6 8 13 8 8 0 14 -6 14 -13z m-847 -68 c0 -3 -4 -8 -10 -11 -5 -3
-10 -1 -10 4 0 6 5 11 10 11 6 0 10 -2 10 -4z m1980 -140 c0 -3 -4 -8 -10 -11
-5 -3 -10 -1 -10 4 0 6 5 11 10 11 6 0 10 -2 10 -4z m-1387 -23 c-4 -10 -2
-14 4 -10 5 3 10 0 10 -8 0 -8 -6 -15 -12 -15 -10 0 -14 33 -6 48 5 10 9 -2 4
-15z m108 -166 c-10 -9 -11 -8 -5 6 3 10 9 15 12 12 3 -3 0 -11 -7 -18z m37
-48 c-3 -8 -7 -3 -11 10 -4 17 -3 21 5 13 5 -5 8 -16 6 -23z m-733 -29 c-3 -5
-11 -10 -16 -10 -6 0 -7 5 -4 10 3 6 11 10 16 10 6 0 7 -4 4 -10z m795 0 c0
-5 -4 -10 -10 -10 -5 0 -10 5 -10 10 0 6 5 10 10 10 6 0 10 -4 10 -10z m1117
-56 c-3 -4 -2 -15 4 -25 7 -14 6 -17 -5 -13 -8 3 -13 13 -11 22 5 23 4 22 12
22 3 0 3 -3 0 -6z m-130 -320 c-3 -3 -12 -4 -19 -1 -8 3 -5 6 6 6 11 1 17 -2
13 -5z m-57 -84 c-12 -8 -12 -10 -1 -10 8 0 12 -2 9 -5 -3 -3 -13 -3 -22 1
-19 7 -11 24 12 24 15 0 15 -2 2 -10z m-1445 -90 c-3 -5 -1 -10 5 -10 6 0 9
-4 5 -10 -3 -5 -12 -7 -21 -3 -11 4 -12 9 -3 19 13 16 23 19 14 4z m145 -154
c0 -2 -7 -7 -16 -10 -8 -3 -12 -2 -9 4 6 10 25 14 25 6z m1114 -54 c3 -5 -1
-9 -9 -9 -8 0 -12 4 -9 9 3 4 7 8 9 8 2 0 6 -4 9 -8z m241 -382 c-3 -5 -12
-10 -18 -10 -7 0 -6 4 3 10 19 12 23 12 15 0z m-1644 -37 c13 -16 12 -17 -3
-4 -10 7 -18 15 -18 17 0 8 8 3 21 -13z m854 -83 c-3 -5 -16 -10 -28 -9 -20 1
-20 2 3 9 14 4 26 8 28 9 2 1 0 -3 -3 -9z m-892 -22 c6 -22 6 -22 -8 -4 -10
13 -15 15 -15 6 0 -7 -3 -11 -6 -7 -7 7 4 27 15 27 5 0 11 -10 14 -22z m888
-7 c6 10 9 8 9 -8 0 -14 6 -23 15 -23 9 0 12 6 9 15 -4 8 -4 15 -1 15 3 0 8
-7 11 -15 4 -10 -2 -19 -17 -26 -20 -9 -20 -9 6 -6 23 4 27 1 27 -20 0 -13 4
-22 10 -18 5 3 7 13 4 23 -5 14 -4 14 4 3 6 -8 8 -19 6 -26 -3 -6 2 -12 11
-13 8 -1 22 -3 30 -4 8 -1 12 -5 9 -10 -3 -5 -10 -6 -15 -3 -5 4 -9 -3 -9 -15
0 -19 1 -20 16 -6 20 20 19 21 22 -11 2 -26 21 -48 31 -37 3 3 -1 9 -9 14 -10
6 -11 10 -3 10 15 0 33 -32 33 -59 0 -25 30 -28 31 -3 0 13 3 11 10 -6 5 -14
14 -21 21 -17 7 4 5 0 -5 -8 -14 -12 -15 -17 -5 -23 7 -5 20 -9 28 -9 11 0 15
-11 15 -37 0 -21 -4 -38 -10 -38 -5 0 -4 -4 4 -9 9 -6 6 -9 -13 -10 -48 -3
-53 -4 -53 -17 0 -7 5 -11 11 -10 6 2 8 1 3 -1 -4 -3 -4 -9 -1 -15 4 -6 -2 -5
-15 1 -22 12 -25 8 -21 -34 1 -19 1 -19 -12 -3 -10 13 -17 15 -28 7 -13 -9
-12 -10 3 -5 10 3 17 0 17 -8 0 -9 -7 -12 -20 -9 -16 4 -19 2 -13 -12 5 -15 2
-17 -15 -13 -12 3 -20 3 -19 -1 4 -14 -28 -69 -37 -65 -6 2 -24 -5 -41 -16
-16 -11 -25 -20 -18 -20 6 0 15 5 18 10 9 14 25 12 25 -3 0 -7 -10 -13 -22
-14 -23 -2 -39 -20 -32 -38 3 -6 -6 -11 -20 -11 -15 0 -22 5 -19 13 3 7 9 10
14 7 5 -3 9 0 9 6 0 6 -8 10 -17 8 -12 -2 -17 2 -15 12 3 12 1 13 -9 3 -20
-20 -27 -16 -31 15 -2 21 -8 27 -28 27 -21 0 -24 4 -22 24 3 20 0 23 -17 18
-19 -5 -26 3 -22 26 0 4 -4 7 -10 7 -5 0 -8 4 -5 9 3 4 -6 6 -21 3 -20 -4 -24
-2 -18 8 6 10 3 12 -11 7 -18 -7 -18 -7 0 8 11 8 14 15 7 15 -7 0 -9 5 -5 11
4 8 0 8 -15 0 -22 -12 -25 -7 -22 32 2 12 -5 17 -25 17 -23 0 -26 3 -22 25 3
13 2 24 -1 23 -36 -4 -48 3 -43 27 2 15 11 25 21 25 14 0 14 -2 1 -10 -8 -5
-10 -10 -4 -10 16 0 34 22 34 42 0 11 7 18 20 18 15 0 20 7 20 25 0 20 5 25
24 25 19 0 24 4 21 20 -4 20 2 23 38 23 14 0 15 2 5 15 -11 13 -11 14 1 7 11
-6 13 -3 9 13 -5 17 -2 20 18 16 20 -4 24 0 24 20 0 19 6 25 28 28 21 2 27 8
25 24 -2 18 2 21 27 19 17 -1 30 2 31 9 0 6 3 5 6 -3 5 -11 7 -11 14 0z m883
-70 c3 -5 0 -14 -7 -19 -10 -8 -13 -6 -14 9 -2 19 11 26 21 10z m-661 -136
c-3 -9 -8 -14 -10 -11 -3 3 -2 9 2 15 9 16 15 13 8 -4z m67 -59 c0 -2 -7 -7
-16 -10 -8 -3 -12 -2 -9 4 6 10 25 14 25 6z m630 -66 c0 -5 -2 -10 -4 -10 -3
0 -8 5 -11 10 -3 6 -1 10 4 10 6 0 11 -4 11 -10z m-1110 -180 c0 -5 -2 -10 -4
-10 -3 0 -8 5 -11 10 -3 6 -1 10 4 10 6 0 11 -4 11 -10z m337 -6 c-3 -3 -12
-4 -19 -1 -8 3 -5 6 6 6 11 1 17 -2 13 -5z m-1080 -20 c-3 -3 -12 -4 -19 -1
-8 3 -5 6 6 6 11 1 17 -2 13 -5z m820 -59 c0 -8 -4 -12 -9 -9 -5 3 -6 10 -3
15 9 13 12 11 12 -6z m-769 -140 c-3 -3 -9 2 -12 12 -6 14 -5 15 5 6 7 -7 10
-15 7 -18z m32 -75 c0 -5 -5 -10 -11 -10 -5 0 -7 5 -4 10 3 6 8 10 11 10 2 0
4 -4 4 -10z m1650 -62 c0 -6 -6 -5 -15 2 -8 7 -15 14 -15 16 0 2 7 1 15 -2 8
-4 15 -11 15 -16z m-54 -80 c-2 -14 -9 -18 -28 -18 -8 0 -5 7 6 15 24 18 25
18 22 3z m-96 -98 c0 -5 -2 -10 -4 -10 -3 0 -8 5 -11 10 -3 6 -1 10 4 10 6 0
11 -4 11 -10z m-1220 -160 c0 -5 -2 -10 -4 -10 -3 0 -8 5 -11 10 -3 6 -1 10 4
10 6 0 11 -4 11 -10z m1404 -318 c3 -5 -1 -9 -9 -9 -8 0 -12 4 -9 9 3 4 7 8 9
8 2 0 6 -4 9 -8z m46 -62 c0 -5 -2 -10 -4 -10 -3 0 -8 5 -11 10 -3 6 -1 10 4
10 6 0 11 -4 11 -10z m45 -48 c-3 -3 -11 0 -18 7 -9 10 -8 11 6 5 10 -3 15 -9
12 -12z m-922 -122 c3 -11 1 -18 -4 -14 -5 3 -9 12 -9 20 0 20 7 17 13 -6z
m52 -40 c3 -6 -1 -7 -9 -4 -18 7 -21 14 -7 14 6 0 13 -4 16 -10z m-1177 -18
c2 -7 -1 -12 -8 -12 -6 0 -9 4 -6 9 4 5 1 12 -4 14 -6 3 -5 4 2 3 6 -1 14 -8
16 -14z m2 -252 c0 -5 -5 -10 -11 -10 -5 0 -7 5 -4 10 3 6 8 10 11 10 2 0 4
-4 4 -10z m1460 -24 c0 -2 -7 -7 -16 -10 -8 -3 -12 -2 -9 4 6 10 25 14 25 6z
m736 -47 c0 -9 -5 -15 -11 -12 -7 2 -12 10 -12 17 0 7 5 13 12 13 6 0 11 -8
11 -18z m-692 3 c2 -4 -5 -9 -17 -9 -17 -2 -19 0 -7 7 18 12 18 12 24 2z m46
-38 c0 -8 -19 -13 -24 -6 -3 5 1 9 9 9 8 0 15 -2 15 -3z m-1456 -56 c-3 -4 -9
-8 -15 -8 -5 0 -9 4 -9 8 0 5 7 9 15 9 8 0 12 -4 9 -9z m1554 -40 c-5 -15 -35
-19 -35 -4 0 7 9 13 19 13 11 1 18 -3 16 -9z m-1198 -53 c-7 -8 -17 -15 -23
-15 -6 0 -2 7 9 15 25 19 30 19 14 0z"/>
<path d="M3311 4156 c-10 -12 -6 -26 10 -26 11 0 19 29 10 35 -5 2 -14 -1 -20
-9z"/>
<path d="M3123 3956 c0 -11 1 -15 4 -8 3 6 9 10 14 6 5 -3 9 -1 9 4 0 21 -26
19 -27 -2z"/>
<path d="M3073 3917 c0 -7 9 -14 19 -14 16 -2 16 0 4 13 -18 17 -23 18 -23 1z"/>
<path d="M3735 3840 c-3 -5 -1 -10 4 -10 6 0 11 5 11 10 0 6 -2 10 -4 10 -3 0
-8 -4 -11 -10z"/>
<path d="M3586 3684 c-11 -8 -16 -14 -10 -14 13 0 39 18 34 24 -3 2 -14 -2
-24 -10z"/>
<path d="M3533 3645 c0 -7 6 -11 14 -8 7 3 13 6 13 8 0 2 -6 5 -13 8 -8 3 -14
-1 -14 -8z"/>
<path d="M3673 1995 c0 -8 4 -12 9 -9 4 3 8 9 8 15 0 5 -4 9 -8 9 -5 0 -9 -7
-9 -15z"/>
<path d="M3490 1819 c0 -5 5 -7 10 -4 6 3 10 8 10 11 0 2 -4 4 -10 4 -5 0 -10
-5 -10 -11z"/>
<path d="M2690 5940 c0 -5 5 -10 11 -10 5 0 7 5 4 10 -3 6 -8 10 -11 10 -2 0
-4 -4 -4 -10z"/>
<path d="M2930 5816 c0 -2 7 -7 16 -10 8 -3 12 -2 9 4 -6 10 -25 14 -25 6z"/>
<path d="M2995 5760 c3 -5 8 -10 11 -10 2 0 4 5 4 10 0 6 -5 10 -11 10 -5 0
-7 -4 -4 -10z"/>
<path d="M2261 5714 c0 -11 3 -14 6 -6 3 7 2 16 -1 19 -3 4 -6 -2 -5 -13z"/>
<path d="M3032 5711 c-11 -7 -11 -9 0 -14 9 -3 15 1 15 9 0 8 -1 14 -1 14 -1
0 -7 -4 -14 -9z"/>
<path d="M3135 5620 c3 -5 8 -10 11 -10 2 0 4 5 4 10 0 6 -5 10 -11 10 -5 0
-7 -4 -4 -10z"/>
<path d="M4521 5604 c0 -11 3 -14 6 -6 3 7 2 16 -1 19 -3 4 -6 -2 -5 -13z"/>
<path d="M3163 5575 c-3 -9 -3 -19 1 -22 3 -4 6 1 6 11 0 10 5 14 12 10 7 -4
8 -3 4 4 -10 16 -15 15 -23 -3z"/>
<path d="M3270 5480 c0 -5 5 -10 11 -10 5 0 7 5 4 10 -3 6 -8 10 -11 10 -2 0
-4 -4 -4 -10z"/>
<path d="M3355 5390 c-3 -6 1 -7 9 -4 18 7 21 14 7 14 -6 0 -13 -4 -16 -10z"/>
<path d="M4434 5280 c2 -16 20 -14 24 2 3 10 2 10 -6 -1 -7 -9 -11 -10 -15 -2
-4 7 -5 8 -3 1z"/>
<path d="M4336 5181 c-3 -5 1 -12 10 -15 8 -3 13 -2 9 3 -3 5 1 12 7 14 8 4 7
6 -4 6 -9 1 -19 -3 -22 -8z"/>
<path d="M2596 4998 c3 -5 10 -6 15 -3 13 9 11 12 -6 12 -8 0 -12 -4 -9 -9z"/>
<path d="M4070 4680 c0 -5 5 -10 11 -10 5 0 7 5 4 10 -3 6 -8 10 -11 10 -2 0
-4 -4 -4 -10z"/>
<path d="M2644 4585 c3 -8 0 -15 -6 -15 -6 0 -8 -3 -5 -6 9 -9 38 16 31 27 -9
15 -26 10 -20 -6z"/>
<path d="M4195 4480 c-3 -5 -1 -10 4 -10 6 0 11 5 11 10 0 6 -2 10 -4 10 -3 0
-8 -4 -11 -10z"/>
<path d="M2496 4365 c-3 -8 -1 -15 4 -15 6 0 10 7 10 15 0 8 -2 15 -4 15 -2 0
-6 -7 -10 -15z"/>
<path d="M2379 3868 c-5 -18 -6 -38 -1 -34 7 8 12 36 6 36 -2 0 -4 -1 -5 -2z"/>
<path d="M4389 3828 c-5 -18 -6 -38 -1 -34 7 8 12 36 6 36 -2 0 -4 -1 -5 -2z"/>
<path d="M4400 3710 c-9 -6 -10 -10 -3 -10 6 0 15 5 18 10 8 12 4 12 -15 0z"/>
<path d="M4385 3680 c-3 -6 1 -7 9 -4 18 7 21 14 7 14 -6 0 -13 -4 -16 -10z"/>
<path d="M4285 3400 c-3 -6 1 -7 9 -4 18 7 21 14 7 14 -6 0 -13 -4 -16 -10z"/>
<path d="M2499 3353 c-10 -11 -10 -14 -1 -9 7 4 12 2 12 -6 0 -9 3 -9 10 2 20
32 3 43 -21 13z"/>
<path d="M2640 3126 c0 -2 8 -10 18 -17 15 -13 16 -12 3 4 -13 16 -21 21 -21
13z"/>
<path d="M4345 2080 c-3 -6 1 -7 9 -4 18 7 21 14 7 14 -6 0 -13 -4 -16 -10z"/>
<path d="M4350 2060 c-9 -6 -10 -10 -3 -10 6 0 15 5 18 10 8 12 4 12 -15 0z"/>
<path d="M4349 1939 c-5 -31 -7 -51 -3 -41 3 6 9 10 14 7 10 -6 7 21 -3 31 -4
4 -7 5 -8 3z"/>
<path d="M4353 1849 c-2 -23 3 -25 10 -4 4 8 3 16 -1 19 -4 3 -9 -4 -9 -15z"/>
<path d="M2467 1764 c-3 -3 -3 -13 0 -22 5 -11 3 -13 -7 -7 -9 5 -11 4 -6 -4
10 -16 25 -4 23 19 -1 22 -1 22 -10 14z"/>
<path d="M2490 1606 c0 -9 5 -16 10 -16 6 0 10 4 10 9 0 6 -4 13 -10 16 -5 3
-10 -1 -10 -9z"/>
<path d="M2516 1567 c3 -10 9 -15 12 -12 3 3 0 11 -7 18 -10 9 -11 8 -5 -6z"/>
<path d="M2790 1110 c0 -5 5 -10 10 -10 6 0 10 5 10 10 0 6 -4 10 -10 10 -5 0
-10 -4 -10 -10z"/>
<path d="M2653 978 c3 -9 1 -19 -6 -22 -9 -3 -9 -5 0 -5 18 -1 23 13 11 29 -8
12 -9 12 -5 -2z"/>
<path d="M2457 769 c7 -7 15 -10 18 -7 3 3 -2 9 -12 12 -14 6 -15 5 -6 -5z"/>
<path d="M4525 480 c-3 -5 -1 -10 4 -10 6 0 11 5 11 10 0 6 -2 10 -4 10 -3 0
-8 -4 -11 -10z"/>
<path d="M4526 367 c3 -10 9 -15 12 -12 3 3 0 11 -7 18 -10 9 -11 8 -5 -6z"/>
<path d="M4535 299 c-4 -6 -4 -13 -1 -16 3 -4 6 -1 6 6 0 7 5 9 12 5 7 -4 8
-3 4 4 -9 15 -13 15 -21 1z"/>
<path d="M2455 20 c-3 -5 -1 -10 4 -10 6 0 11 5 11 10 0 6 -2 10 -4 10 -3 0
-8 -4 -11 -10z"/>
<path d="M4310 9 c0 -5 5 -7 10 -4 6 3 10 8 10 11 0 2 -4 4 -10 4 -5 0 -10 -5
-10 -11z"/>
</g>
</svg>
