<?xml version="1.0" encoding="UTF-8" standalone="no"?>
<svg
   xmlns:dc="http://purl.org/dc/elements/1.1/"
   xmlns:cc="http://creativecommons.org/ns#"
   xmlns:rdf="http://www.w3.org/1999/02/22-rdf-syntax-ns#"
   xmlns:svg="http://www.w3.org/2000/svg"
   xmlns="http://www.w3.org/2000/svg"
   viewBox="0 0 793.70667 1122.52"
   height="1122.52"
   width="793.70667"
   xml:space="preserve"
   id="svg2"
   version="1.1"><metadata
     id="metadata8"><rdf:RDF><cc:Work
         rdf:about=""><dc:format>image/svg+xml</dc:format><dc:type
           rdf:resource="http://purl.org/dc/dcmitype/StillImage" /></cc:Work></rdf:RDF></metadata><defs
     id="defs6"><clipPath
       id="clipPath22"
       clipPathUnits="userSpaceOnUse"><path
         id="path20"
         d="M 0,841.89 H 595.28 V 0 H 0 Z" /></clipPath></defs><g
     transform="matrix(1.3333333,0,0,-1.3333333,0,1122.52)"
     id="g10"><path
       id="path12"
       style="fill:#f29400;fill-opacity:1;fill-rule:nonzero;stroke:none"
       d="m 350.678,443.444 h -4.498 v 44.746 h 4.498 z" /><path
       id="path14"
       style="fill:#a51652;fill-opacity:1;fill-rule:nonzero;stroke:none"
       d="m 239.344,443.444 h -4.499 v 44.746 h 4.499 z" /><g
       id="g16"><g
         clip-path="url(#clipPath22)"
         id="g18"><g
           transform="translate(287.5244,499.6587)"
           id="g24"><path
             id="path26"
             style="fill:#a51652;fill-opacity:1;fill-rule:nonzero;stroke:none"
             d="m 0,0 c 2.44,2.441 2.44,6.4 0,8.841 -2.439,2.441 -6.396,2.441 -8.837,0 l -7.768,-7.769 8.836,-8.838 z" /></g><g
           transform="translate(279.7559,433.1426)"
           id="g28"><path
             id="path30"
             style="fill:#fabb00;fill-opacity:1;fill-rule:nonzero;stroke:none"
             d="m 0,0 -8.837,-8.841 7.769,-7.769 c 1.217,-1.217 2.818,-1.828 4.419,-1.828 1.599,0 3.199,0.611 4.418,1.828 2.44,2.442 2.44,6.4 0,8.84 z" /></g><g
           transform="translate(276.4561,447.5176)"
           id="g32"><path
             id="path34"
             style="fill:#a51652;fill-opacity:1;fill-rule:nonzero;stroke:none"
             d="m 0,0 -5.537,-5.539 8.837,-8.836 0.853,0.853 C 16.766,-0.912 4.274,13.362 4.013,13.657 4.063,13.322 5.218,5.222 0,0" /></g><g
           transform="translate(276.4561,447.5176)"
           id="g36"><path
             id="path38"
             style="fill:#a51652;fill-opacity:1;fill-rule:nonzero;stroke:none"
             d="M 0,0 C 5.218,5.222 4.063,13.322 4.013,13.657 4.01,13.662 4.01,13.667 4.01,13.667 L 3.3,14.375 -5.537,5.538 Z" /></g><g
           transform="translate(277.0801,476.8926)"
           id="g40"><path
             id="path42"
             style="fill:#f29400;fill-opacity:1;fill-rule:nonzero;stroke:none"
             d="M 0,0 -6.161,-6.161 2.676,-15 2.879,-14.799 C 17.773,0.098 5.02,12.837 3.11,14.592 L 3.085,14.563 C 3.085,14.563 5.179,5.179 0,0" /></g><g
           transform="translate(277.0801,476.8926)"
           id="g44"><path
             id="path46"
             style="fill:#fabb00;fill-opacity:1;fill-rule:nonzero;stroke:none"
             d="M 0,0 C 5.179,5.179 3.085,14.563 3.085,14.563 L 3.11,14.592 C 2.963,14.729 2.879,14.797 2.879,14.797 L 2.676,15 -6.161,6.164 Z" /></g><g
           transform="translate(279.7559,461.8926)"
           id="g48"><path
             id="path50"
             style="fill:#a51652;fill-opacity:1;fill-rule:nonzero;stroke:none"
             d="M 0,0 -8.837,8.839 -17.676,0 -8.837,-8.837 Z" /></g><g
           transform="translate(279.7559,491.8931)"
           id="g52"><path
             id="path54"
             style="fill:#f29400;fill-opacity:1;fill-rule:nonzero;stroke:none"
             d="M 0,0 -8.837,8.837 -17.676,0 -8.837,-8.836 Z" /></g><g
           transform="translate(270.9189,441.9785)"
           id="g56"><path
             id="path58"
             style="fill:#eb6e08;fill-opacity:1;fill-rule:nonzero;stroke:none"
             d="M 0,0 -8.839,-8.839 0,-17.677 8.837,-8.836 Z" /></g><g
           transform="translate(263.1494,508.5)"
           id="g60"><path
             id="path62"
             style="fill:#fabb00;fill-opacity:1;fill-rule:nonzero;stroke:none"
             d="m 0,0 c -2.44,2.44 -6.396,2.44 -8.837,0 -2.441,-2.441 -2.441,-6.4 0,-8.841 l 7.768,-7.766 8.839,8.837 z" /></g><g
           transform="translate(264.7559,476.8926)"
           id="g64"><path
             id="path66"
             style="fill:#a51652;fill-opacity:1;fill-rule:nonzero;stroke:none"
             d="M 0,0 6.163,6.164 -2.676,15 -2.879,14.797 c 0,0 -0.084,-0.068 -0.23,-0.205 l 0.024,-0.029 C -3.085,14.563 -5.179,5.179 0,0" /></g><g
           transform="translate(264.7559,476.8926)"
           id="g68"><path
             id="path70"
             style="fill:#a51652;fill-opacity:1;fill-rule:nonzero;stroke:none"
             d="m 0,0 c -5.179,5.179 -3.085,14.563 -3.085,14.563 l -0.024,0.029 C -5.02,12.837 -17.775,0.098 -2.879,-14.799 L -2.676,-15 6.163,-6.161 Z" /></g><g
           transform="translate(265.3809,447.5176)"
           id="g72"><path
             id="path74"
             style="fill:#f29400;fill-opacity:1;fill-rule:nonzero;stroke:none"
             d="m 0,0 5.538,5.538 -8.839,8.837 -0.709,-0.708 c 0,0 0,-0.005 -0.004,-0.01 C -4.063,13.322 -5.222,5.222 0,0" /></g><g
           transform="translate(265.3809,447.5176)"
           id="g76"><path
             id="path78"
             style="fill:#fabb00;fill-opacity:1;fill-rule:nonzero;stroke:none"
             d="m 0,0 c -5.222,5.222 -4.063,13.322 -4.014,13.657 -0.26,-0.295 -12.752,-14.569 -0.142,-27.179 l 0.855,-0.856 8.839,8.839 z" /></g><g
           transform="translate(254.3125,425.373)"
           id="g80"><path
             id="path82"
             style="fill:#a51652;fill-opacity:1;fill-rule:nonzero;stroke:none"
             d="m 0,0 c -2.441,-2.44 -2.441,-6.398 0,-8.841 1.218,-1.217 2.818,-1.827 4.418,-1.827 1.601,0 3.2,0.61 4.419,1.827 l 7.769,7.77 -8.838,8.838 z" /></g><g
           transform="translate(306.6641,518.9448)"
           id="g84"><path
             id="path86"
             style="fill:#a51652;fill-opacity:1;fill-rule:nonzero;stroke:none"
             d="m 0,0 c 0,-4.758 -3.855,-8.614 -8.614,-8.614 -4.758,0 -8.615,3.856 -8.615,8.614 0,4.757 3.857,8.614 8.615,8.614 C -3.855,8.614 0,4.757 0,0" /></g><g
           transform="translate(103.9917,465.7559)"
           id="g88"><path
             id="path90"
             style="fill:#444346;fill-opacity:1;fill-rule:nonzero;stroke:none"
             d="m 0,0 c 0,2.56 0.48,5.18 1.439,7.859 0.96,2.678 2.38,5.108 4.26,7.288 1.879,2.179 4.218,3.958 7.018,5.338 2.798,1.38 6.057,2.07 9.776,2.07 v -4.499 c -2.36,0 -4.629,-0.451 -6.808,-1.349 -2.18,-0.9 -4.108,-2.141 -5.788,-3.72 C 8.217,11.407 6.878,9.509 5.878,7.288 4.878,5.069 4.379,2.64 4.379,0 c 0,-2.68 0.519,-5.128 1.559,-7.346 1.04,-2.22 2.409,-4.12 4.109,-5.698 1.7,-1.58 3.639,-2.811 5.818,-3.689 2.179,-0.88 4.388,-1.301 6.628,-1.261 H 36.049 V 0 h 4.499 v -19.492 -3.001 H 22.493 c -1.2,0 -2.579,0.152 -4.138,0.451 -1.56,0.299 -3.179,0.8 -4.859,1.5 -1.679,0.698 -3.319,1.618 -4.918,2.757 -1.6,1.141 -3.04,2.55 -4.319,4.23 -1.28,1.68 -2.309,3.639 -3.09,5.877 C 0.39,-5.437 0,-2.879 0,0" /></g><g
           transform="translate(191.4458,464.3174)"
           id="g92"><path
             id="path94"
             style="fill:#444346;fill-opacity:1;fill-rule:nonzero;stroke:none"
             d="M 0,0 H -31.491 V -16.496 H 0 v -4.496 h -35.989 v 1.442 19.6 4.449 L 0,4.499 Z m -0.06,19.435 h -35.929 v 4.498 H -0.06 Z" /></g><g
           transform="translate(203.8945,488.1904)"
           id="g96"><path
             id="path98"
             style="fill:#444346;fill-opacity:1;fill-rule:nonzero;stroke:none"
             d="m 0,0 h 2.999 l 32.45,-44.746 h -1.26 -4.318 L 4.499,-9.657 V -44.746 H 0 Z" /></g><g
           transform="translate(303.7715,488.1304)"
           id="g100"><path
             id="path102"
             style="fill:#444346;fill-opacity:1;fill-rule:nonzero;stroke:none"
             d="M 0,0 H 3.299 L 22.433,-23.454 41.268,0 h 5.638 L 24.053,-28.492 h -2.82 L 4.498,-8.638 V -44.805 H 0 Z" /></g><g
           transform="translate(378.3887,488.1304)"
           id="g104"><path
             id="path106"
             style="fill:#444346;fill-opacity:1;fill-rule:nonzero;stroke:none"
             d="m 0,0 h 2.879 l 17.934,-44.868 h -5.218 l -14.096,36.17 -14.516,-36.17 h -4.918 z" /></g><g
           transform="translate(404.6533,465.7559)"
           id="g108"><path
             id="path110"
             style="fill:#444346;fill-opacity:1;fill-rule:nonzero;stroke:none"
             d="m 0,0 c 0,2.56 0.479,5.18 1.439,7.859 0.96,2.678 2.379,5.108 4.259,7.288 1.879,2.179 4.219,3.958 7.019,5.338 2.797,1.38 6.057,2.07 9.776,2.07 v -4.499 c -2.36,0 -4.629,-0.451 -6.807,-1.349 -2.181,-0.9 -4.109,-2.141 -5.79,-3.72 C 8.218,11.407 6.877,9.509 5.878,7.288 4.878,5.069 4.38,2.64 4.38,0 c 0,-2.68 0.518,-5.128 1.558,-7.346 1.041,-2.22 2.41,-4.12 4.11,-5.698 1.698,-1.58 3.638,-2.811 5.817,-3.689 2.179,-0.88 4.389,-1.301 6.628,-1.261 H 36.049 V 0 h 4.498 v -19.492 -3.001 H 22.493 c -1.199,0 -2.58,0.152 -4.138,0.451 -1.56,0.299 -3.18,0.8 -4.859,1.5 -1.679,0.698 -3.318,1.618 -4.919,2.757 -1.598,1.141 -3.038,2.55 -4.318,4.23 -1.28,1.68 -2.31,3.639 -3.09,5.877 C 0.391,-5.437 0,-2.879 0,0" /></g><g
           transform="translate(492.1074,464.3174)"
           id="g112"><path
             id="path114"
             style="fill:#444346;fill-opacity:1;fill-rule:nonzero;stroke:none"
             d="M 0,0 H -31.49 V -16.496 H 0 v -4.496 h -35.989 v 1.442 19.6 4.449 L 0,4.499 Z m -0.06,19.435 h -35.93 v 4.498 h 35.93 z" /></g></g></g></g></svg>